<svg width="36" height="32" viewBox="0 0 36 32" fill="none" xmlns="http://www.w3.org/2000/svg">
<path d="M16.25 31.75V7.25H19.75V31.75H16.25ZM9.25 26.5V12.5H12.75V26.5H9.25ZM23.25 26.5V12.5H26.75V26.5H23.25ZM2.25 21.25V17.75H5.75V21.25H2.25ZM30.25 21.25V17.75H33.75V21.25H30.25ZM0.5 12.5V9H2.55625C3.78125 9 4.92604 8.69375 5.99062 8.08125C7.05521 7.46875 7.90833 6.6375 8.55 5.5875C9.54167 3.925 10.876 2.61979 12.5531 1.67188C14.2302 0.723958 16.0458 0.25 18 0.25C19.9542 0.25 21.7698 0.723958 23.4469 1.67188C25.124 2.61979 26.4583 3.925 27.45 5.5875C28.0917 6.6375 28.9448 7.46875 30.0094 8.08125C31.074 8.69375 32.2188 9 33.4437 9H35.5V12.5H33.4875C31.65 12.5 29.9219 12.0479 28.3031 11.1438C26.6844 10.2396 25.4083 9 24.475 7.425C23.8042 6.2875 22.8927 5.39062 21.7406 4.73438C20.5885 4.07812 19.3417 3.75 18 3.75C16.6875 3.75 15.4552 4.07812 14.3031 4.73438C13.151 5.39062 12.2396 6.2875 11.5687 7.425C10.6354 9 9.35938 10.2396 7.74062 11.1438C6.12187 12.0479 4.39375 12.5 2.55625 12.5H0.5Z" fill="url(#paint0_linear_24_13953)"/>
<defs>
<linearGradient id="paint0_linear_24_13953" x1="18.1207" y1="31.75" x2="18.1207" y2="0.25" gradientUnits="userSpaceOnUse">
<stop stop-color="#007BFF"/>
<stop offset="1" stop-color="#4AA1FF"/>
</linearGradient>
</defs>
</svg>
